<svg width="34" height="32" viewBox="0 0 34 32" fill="none" xmlns="http://www.w3.org/2000/svg">
<path d="M30.3333 10.3333H20.9799L22.8516 4.72159C23.1883 3.70825 23.0183 2.58492 22.3933 1.71825C21.7683 0.851586 20.7549 0.333252 19.6866 0.333252H16.9999C16.5049 0.333252 16.0366 0.553252 15.7183 0.933252L7.88492 10.3333H3.66659C1.82825 10.3333 0.333252 11.8283 0.333252 13.6666V28.6666C0.333252 30.5049 1.82825 31.9999 3.66659 31.9999H25.8449C26.5231 31.9977 27.1846 31.7897 27.742 31.4034C28.2993 31.0171 28.7264 30.4708 28.9666 29.8366L33.5616 17.5849C33.6314 17.3978 33.6669 17.1996 33.6666 16.9999V13.6666C33.6666 11.8283 32.1716 10.3333 30.3333 10.3333ZM3.66659 13.6666H6.99992V28.6666H3.66659V13.6666ZM30.3333 16.6983L25.8449 28.6666H10.3333V12.6033L17.7799 3.66659H19.6899L17.0866 11.4716C17.0021 11.7221 16.9785 11.9892 17.0178 12.2506C17.0571 12.5121 17.1582 12.7604 17.3127 12.975C17.4672 13.1896 17.6705 13.3642 17.906 13.4845C18.1415 13.6048 18.4022 13.6672 18.6666 13.6666H30.3333V16.6983Z" fill="#F6A51A"/>
</svg>
