<svg width="34" height="35" viewBox="0 0 34 35" fill="none" xmlns="http://www.w3.org/2000/svg">
<path fill-rule="evenodd" clip-rule="evenodd" d="M11.344 1.82202C11.2067 1.30963 10.8714 0.87279 10.4119 0.607613C9.95243 0.342437 9.40644 0.270643 8.89404 0.408025C8.38165 0.545407 7.94481 0.880712 7.67963 1.34018C7.41445 1.79964 7.34266 2.34563 7.48004 2.85802L7.99804 4.79002C8.13542 5.30242 8.47073 5.73926 8.93019 6.00444C9.38966 6.26961 9.93565 6.34141 10.448 6.20403C10.9604 6.06664 11.3973 5.73134 11.6625 5.27187C11.9276 4.81241 11.9994 4.26642 11.862 3.75402L11.342 1.82202H11.344ZM2.85804 7.48002C2.60389 7.41074 2.33855 7.39235 2.07727 7.42591C1.81598 7.45946 1.5639 7.54431 1.33551 7.67556C1.10711 7.80682 0.906887 7.9819 0.746346 8.19076C0.585806 8.39962 0.468107 8.63813 0.40001 8.89261C0.331913 9.14708 0.314759 9.4125 0.349534 9.67363C0.384308 9.93475 0.470325 10.1864 0.602646 10.4142C0.734966 10.642 0.910983 10.8414 1.12059 11.001C1.33019 11.1605 1.56925 11.2771 1.82404 11.344L3.75604 11.862C4.26752 11.9963 4.81137 11.9226 5.26863 11.657C5.7259 11.3914 6.05935 10.9555 6.19605 10.4446C6.33275 9.93378 6.26157 9.38959 5.99808 8.93109C5.73459 8.47259 5.30024 8.13711 4.79004 7.99802L2.85804 7.47802V7.48002ZM20.486 6.34202C20.6717 6.1562 20.819 5.93563 20.9194 5.69289C21.0199 5.45016 21.0715 5.19001 21.0714 4.92732C21.0714 4.66462 21.0195 4.40451 20.9189 4.16185C20.8183 3.91918 20.6709 3.69871 20.485 3.51302C20.2992 3.32734 20.0786 3.18006 19.8359 3.07962C19.5932 2.97918 19.333 2.92753 19.0703 2.92762C18.8076 2.92771 18.5475 2.97955 18.3049 3.08016C18.0622 3.18078 17.8417 3.3282 17.656 3.51402L16.242 4.92802C16.0562 5.11385 15.9088 5.33445 15.8083 5.57723C15.7077 5.82002 15.6559 6.08024 15.6559 6.34303C15.6559 6.60581 15.7077 6.86603 15.8083 7.10882C15.9088 7.3516 16.0562 7.5722 16.242 7.75803C16.4279 7.94385 16.6485 8.09125 16.8913 8.19181C17.134 8.29238 17.3943 8.34414 17.657 8.34414C17.9198 8.34414 18.18 8.29238 18.4228 8.19181C18.6656 8.09125 18.8862 7.94385 19.072 7.75803L20.486 6.34202ZM6.34404 20.486L7.75804 19.072C8.13359 18.697 8.34478 18.1882 8.34515 17.6574C8.34553 17.1267 8.13506 16.6176 7.76004 16.242C7.38503 15.8665 6.87618 15.6553 6.34546 15.6549C5.81473 15.6545 5.30559 15.865 4.93004 16.24L3.51404 17.654C3.13876 18.0293 2.92793 18.5383 2.92793 19.069C2.92793 19.5998 3.13876 20.1087 3.51404 20.484C3.88932 20.8593 4.39831 21.0701 4.92904 21.0701C5.45977 21.0701 5.96876 20.8593 6.34404 20.484V20.486ZM12.744 10.144C12.3806 9.99854 11.9824 9.96293 11.5989 10.0416C11.2154 10.1203 10.8634 10.3098 10.5866 10.5866C10.3098 10.8634 10.1203 11.2154 10.0416 11.5989C9.96295 11.9824 9.99856 12.3806 10.144 12.744L18.144 32.744C18.2874 33.102 18.5311 33.4109 18.846 33.6335C19.1608 33.8561 19.5332 33.983 19.9185 33.9989C20.3038 34.0147 20.6854 33.9189 21.0174 33.7228C21.3495 33.5268 21.6178 33.239 21.79 32.894L24.55 27.376L30.586 33.416C30.9613 33.791 31.4702 34.0016 32.0008 34.0014C32.5313 34.0012 33.04 33.7903 33.415 33.415C33.7901 33.0397 34.0006 32.5309 34.0005 32.0003C34.0003 31.4698 33.7893 30.961 33.414 30.586L27.376 24.546L32.896 21.788C33.2404 21.6153 33.5275 21.3469 33.7229 21.015C33.9183 20.6831 34.0138 20.3018 33.9977 19.9169C33.9817 19.532 33.8548 19.16 33.6324 18.8455C33.41 18.531 33.1015 18.2874 32.744 18.144L12.744 10.144Z" fill="#F6A51A"/>
</svg>
