<svg width="34" height="34" viewBox="0 0 34 34" fill="none" xmlns="http://www.w3.org/2000/svg">
<path fill-rule="evenodd" clip-rule="evenodd" d="M5.33325 3.66659H28.6666C29.1086 3.66659 29.5325 3.84218 29.8451 4.15474C30.1577 4.4673 30.3333 4.89123 30.3333 5.33325V28.6666C30.3333 29.1086 30.1577 29.5325 29.8451 29.8451C29.5325 30.1577 29.1086 30.3333 28.6666 30.3333H5.33325C4.89122 30.3333 4.4673 30.1577 4.15474 29.8451C3.84218 29.5325 3.66659 29.1086 3.66659 28.6666V5.33325C3.66659 4.89123 3.84218 4.4673 4.15474 4.15474C4.4673 3.84218 4.89122 3.66659 5.33325 3.66659ZM0.333252 5.33325C0.333252 4.00717 0.860036 2.7354 1.79772 1.79772C2.7354 0.860036 4.00717 0.333252 5.33325 0.333252H28.6666C29.9927 0.333252 31.2644 0.860036 32.2021 1.79772C33.1398 2.7354 33.6666 4.00717 33.6666 5.33325V28.6666C33.6666 29.9927 33.1398 31.2644 32.2021 32.2021C31.2644 33.1398 29.9927 33.6666 28.6666 33.6666H5.33325C4.00717 33.6666 2.7354 33.1398 1.79772 32.2021C0.860036 31.2644 0.333252 29.9927 0.333252 28.6666V5.33325ZM16.9999 16.9999C12.3983 16.9999 8.66659 12.5233 8.66659 6.99992H11.9999C11.9999 11.2766 14.7833 13.6666 16.9999 13.6666C19.2166 13.6666 21.9999 11.2766 21.9999 6.99992H25.3333C25.3333 12.5233 21.6016 16.9999 16.9999 16.9999Z" fill="#F6A51A"/>
</svg>
